%TF.GenerationSoftware,KiCad,Pcbnew,(6.0.9-0)*%
%TF.CreationDate,2022-10-31T20:53:56-07:00*%
%TF.ProjectId,Assg_2D,41737367-5f32-4442-9e6b-696361645f70,rev?*%
%TF.SameCoordinates,Original*%
%TF.FileFunction,OtherDrawing,Comment*%
%FSLAX46Y46*%
G04 Gerber Fmt 4.6, Leading zero omitted, Abs format (unit mm)*
G04 Created by KiCad (PCBNEW (6.0.9-0)) date 2022-10-31 20:53:56*
%MOMM*%
%LPD*%
G01*
G04 APERTURE LIST*
%ADD10C,0.750000*%
G04 APERTURE END LIST*
D10*
X69613214Y-71151428D02*
X70384642Y-71437142D01*
X70641785Y-71722857D01*
X70898928Y-72294285D01*
X70898928Y-73151428D01*
X70641785Y-73722857D01*
X70384642Y-74008571D01*
X69870357Y-74294285D01*
X67813214Y-74294285D01*
X67813214Y-68294285D01*
X69613214Y-68294285D01*
X70127500Y-68580000D01*
X70384642Y-68865714D01*
X70641785Y-69437142D01*
X70641785Y-70008571D01*
X70384642Y-70580000D01*
X70127500Y-70865714D01*
X69613214Y-71151428D01*
X67813214Y-71151428D01*
X78356071Y-68294285D02*
X79384642Y-68294285D01*
X79898928Y-68580000D01*
X80413214Y-69151428D01*
X80670357Y-70294285D01*
X80670357Y-72294285D01*
X80413214Y-73437142D01*
X79898928Y-74008571D01*
X79384642Y-74294285D01*
X78356071Y-74294285D01*
X77841785Y-74008571D01*
X77327500Y-73437142D01*
X77070357Y-72294285D01*
X77070357Y-70294285D01*
X77327500Y-69151428D01*
X77841785Y-68580000D01*
X78356071Y-68294285D01*
X86584642Y-68294285D02*
X90184642Y-74294285D01*
X90184642Y-68294285D02*
X86584642Y-74294285D01*
M02*
